<svg xmlns="http://www.w3.org/2000/svg" xmlns:xlink="http://www.w3.org/1999/xlink" viewBox="0,0,256,256" width="30px" height="30px" fill-rule="nonzero"><g fill="#ffffff" fill-rule="nonzero" stroke="none" stroke-width="1" stroke-linecap="butt" stroke-linejoin="miter" stroke-miterlimit="10" stroke-dasharray="" stroke-dashoffset="0" font-family="none" font-weight="none" font-size="none" text-anchor="none" style="mix-blend-mode: normal"><g transform="scale(8.53333,8.53333)"><path d="M12.97461,3.26172c-3.547,0 -6.7903,1.26538 -9.2793,3.35937c0,0 4.5608,-0.11172 6.2168,3.98828c0,0 -6.21611,-0.00089 -7.91211,7.91211c0,0 3.95763,-2.26112 7.51563,-0.20312c0,0 -2.99414,1.89864 -2.99414,8.68164c0,0 1.96664,-3.20155 7.15039,-2.95312c0.10957,0.10859 0.21898,0.21841 0.33789,0.31836c1.26277,1.06142 3.00313,1.63477 4.99023,1.63477c2.12827,0 4.06233,-0.43048 5.54492,-1.41602c1.48259,-0.98554 2.45508,-2.61321 2.45508,-4.58398c0,-0.15227 -0.01798,-0.31268 -0.04687,-0.47461c0.73057,-0.45396 1.16633,-1.14156 1.01758,-1.72461c-0.188,-0.733 -1.22255,-1.01395 -2.31055,-0.62695c-0.56032,0.19912 -1.02048,0.53805 -1.31445,0.91797c-0.4421,0.11715 -0.78578,0.32475 -1.17187,0.48047c-0.55678,0.22455 -1.19698,0.42773 -2.17383,0.42773c-1.71964,0 -2.84229,-0.43358 -3.72461,-0.88867c-0.44116,-0.22755 -0.81783,-0.46457 -1.19531,-0.67383c-0.13884,-0.07697 -0.2885,-0.14895 -0.43945,-0.21875c-0.1476,-0.1601 -0.64062,-0.78148 -0.64062,-2.06445c0,-1.26579 0.2914,-2.40417 0.70898,-3.14258c0.41758,-0.73841 0.84818,-1.01172 1.29102,-1.01172c0.90577,0 1.38098,0.25443 1.77148,0.64453c0.39051,0.39011 0.67864,0.98283 0.88281,1.64844c0.20417,0.6656 0.31998,1.37493 0.46094,1.99219c0.07048,0.30863 0.13588,0.59081 0.29297,0.9043c0.07854,0.15674 0.18261,0.33094 0.37891,0.5c0.1963,0.16906 0.51764,0.31055 0.82422,0.31055c0.32231,0 0.59531,-0.14877 0.75195,-0.28125c0.04158,-0.03517 0.06724,-0.06788 0.09961,-0.10156c0.06719,0.18091 0.16524,0.31887 0.31445,0.34766c0.394,0.076 0.84203,-0.47431 1.08203,-1.32031c0.24,-0.846 0.17425,-1.56072 -0.21875,-1.63672c-0.01705,-0.00333 -0.03528,0.00093 -0.05273,0c0.13642,-0.3095 0.27993,-0.59116 0.41406,-0.75976c0.18425,-0.23161 0.24108,-0.24805 0.34766,-0.24805c0.18034,0 0.27656,0.05591 0.41211,0.23633c0.13555,0.18042 0.23828,0.48944 0.23828,0.75781c-0.0051,0.36064 0.18438,0.69608 0.49587,0.87789c0.3115,0.18181 0.69676,0.18181 1.00825,0c0.3115,-0.18181 0.50097,-0.51725 0.49587,-0.87789c0,-0.69763 -0.20818,-1.3834 -0.64062,-1.95899c-0.0865,-0.11513 -0.19194,-0.22112 -0.30078,-0.32422c1.13393,-1.63943 1.08789,-3.86914 1.08789,-3.86914c-0.80181,-0.27482 -2.32379,-0.01413 -3.43164,0.24609c-2.60639,-2.93542 -6.44375,-4.82617 -10.74023,-4.82617zM17.5625,13.00977c-0.482,-0.102 -1.10734,0.66669 -1.40234,1.80469c-0.295,1.138 -0.13925,2.07378 0.34375,2.17578c0.483,0.102 1.03217,-0.63834 1.32617,-1.77734c0.294,-1.139 0.21442,-2.10213 -0.26758,-2.20312zM13.45703,17.35352c0.00181,0.0042 0.00404,0.00754 0.00586,0.01172c-0.12034,0.07204 -0.23077,0.15354 -0.33594,0.24023c0.09365,-0.09577 0.20902,-0.17593 0.33008,-0.25195zM14.73047,19c-0.08685,0 0.08188,0.02176 0.38086,0.1875c0.29898,0.16574 0.71788,0.42872 1.24609,0.70117c1.05644,0.54491 2.57122,1.11133 4.64258,1.11133c1.27315,0 2.2389,-0.29682 2.92188,-0.57227c0.68297,-0.27545 1.10403,-0.42773 1.07813,-0.42773c0,1.36722 -0.53959,2.23996 -1.5625,2.91992c-1.02291,0.67996 -2.58777,1.08008 -4.4375,1.08008c-1.60289,0 -2.8634,-0.46019 -3.70312,-1.16602c-0.83973,-0.70583 -1.29687,-1.64257 -1.29687,-2.83398c0,-0.16641 0.09823,-0.50622 0.25391,-0.71484c0.15568,-0.20862 0.28011,-0.28516 0.47656,-0.28516z"></path></g></g></svg>